<?xml version="1.0" encoding="UTF-8"?>
<svg version="1.1" xmlns="http://www.w3.org/2000/svg" width="506" height="493">
<path d="M0 0 C1.21236328 0.01353516 1.21236328 0.01353516 2.44921875 0.02734375 C3.37154297 0.04474609 3.37154297 0.04474609 4.3125 0.0625 C4.3125 0.7225 4.3125 1.3825 4.3125 2.0625 C4.869375 2.289375 5.42625 2.51625 6 2.75 C9.81335367 4.91433587 12.68664886 6.97273268 13.9921875 11.33203125 C14.77492183 16.53162358 14.49556121 20.66379593 11.8046875 25.23828125 C7.89658196 30.01599142 2.888755 33.14153354 -3.25 33.9375 C-4.9515625 33.999375 -4.9515625 33.999375 -6.6875 34.0625 C-7.0175 33.0725 -7.3475 32.0825 -7.6875 31.0625 C-10.68757271 29.35394978 -10.68757271 29.35394978 -13.6875 28.0625 C-14.0175 29.0525 -14.3475 30.0425 -14.6875 31.0625 C-16.66268089 31.52337554 -18.6387651 31.98106543 -20.62109375 32.41015625 C-24.78522969 33.72473225 -26.9408582 37.01167079 -29.375 40.4375 C-34.16570909 50.01891818 -33.63547549 59.12556569 -30.37890625 69.09765625 C-29.36507139 72.11732134 -28.31023589 75.12137164 -27.25 78.125 C-26.6975088 79.72858101 -26.14649938 81.33267327 -25.59692383 82.93725586 C-24.49423807 86.14770885 -23.38213358 89.35462718 -22.26074219 92.55859375 C-20.86621283 96.54332484 -19.49504696 100.53536225 -18.1328125 104.53125 C-16.34252466 109.77437118 -14.52046328 115.00539519 -12.67822266 120.23046875 C-11.70869012 123.00192695 -10.76488628 125.78113424 -9.82421875 128.5625 C-7.12511344 136.39396698 -4.749168 142.66406606 0.8359375 148.92578125 C2.69937854 151.62234805 3.0998735 153.9087243 3.6875 157.125 C4.78501087 162.94180762 6.81271978 167.5157686 9.6875 172.625 C10.25090088 173.64315796 10.25090088 173.64315796 10.82568359 174.68188477 C13.53909886 179.33553783 16.35756708 182.75224218 21.41796875 184.99609375 C27.6039577 186.49326556 32.62287717 186.02977019 38.3125 183.0625 C45.28503095 177.48713651 48.17339743 169.82556163 50.1953125 161.37109375 C50.35104736 160.72148682 50.50678223 160.07187988 50.66723633 159.40258789 C51.10293909 157.53220306 51.49980472 155.65289681 51.89453125 153.7734375 C53.24325657 150.24371559 54.05580164 149.10682079 56.5859375 146.53125 C61.70289289 141.02619415 63.6940615 134.14525286 66.125 127.1875 C66.63882706 125.75954686 67.15464377 124.33230823 67.67236328 122.90576172 C68.46052656 120.7327616 69.24722498 118.55934337 70.02703857 116.3833313 C72.4582114 109.60228002 75.06288509 102.89608016 77.6875 96.1875 C80.55892294 88.77551205 83.34330764 81.34800785 85.875 73.8125 C86.11460449 73.10367676 86.35420898 72.39485352 86.60107422 71.66455078 C90.03440594 61.18480002 90.68484737 51.33066072 86.3125 41.0625 C82.34117536 33.66292805 82.34117536 33.66292805 76.3125 28.0625 C72.78538689 27.80123236 70.11694524 27.7407219 66.8125 29.0625 C62.37192305 30.83873078 58.63879608 30.53996659 54.1875 28.9375 C50.25400718 26.37217859 47.25559327 23.71083749 45.640625 19.17578125 C44.716754 14.47327787 45.57185282 11.01448341 47.9609375 6.89453125 C50.8458882 2.98400559 53.81226876 0.57515246 58.63671875 -0.4140625 C65.60983569 -0.83004122 70.4182861 1.62420856 76.3125 5.0625 C77.43140625 5.66707031 78.5503125 6.27164063 79.703125 6.89453125 C94.06184613 14.70379756 105.01512748 23.08888441 110.3125 39.0625 C111.5525826 43.46413695 111.61103157 47.70012822 111.6875 52.25 C111.72488281 53.04341797 111.76226562 53.83683594 111.80078125 54.65429688 C111.9254116 63.56536705 109.06275167 71.70047741 106.3125 80.0625 C106.04775879 80.86982574 105.78301758 81.67715149 105.51025391 82.50894165 C103.80457306 87.67969699 102.05470416 92.83452911 100.28344727 97.9831543 C99.37513922 100.62459514 98.47329969 103.26817956 97.57226562 105.91210938 C94.39318495 115.20918089 91.10183987 124.44869256 87.59643555 133.62792969 C84.82092662 141.05250844 82.45065111 148.31074676 81.4375 156.1875 C78.70774991 175.77048981 70.89912899 193.49060863 55.3125 206.0625 C46.35744382 212.0625 46.35744382 212.0625 41.3125 212.0625 C41.28671875 213.20203125 41.2609375 214.3415625 41.234375 215.515625 C39.89900991 257.57288122 22.74207323 300.47270395 -7.6875 330.0625 C-8.33074219 330.72894531 -8.97398437 331.39539063 -9.63671875 332.08203125 C-10.21035156 332.67371094 -10.78398437 333.26539063 -11.375 333.875 C-11.95636719 334.47957031 -12.53773438 335.08414062 -13.13671875 335.70703125 C-14.6875 337.0625 -14.6875 337.0625 -16.6875 337.0625 C-17.0278125 337.91908203 -17.0278125 337.91908203 -17.375 338.79296875 C-23.43621887 349.27382638 -39.31856593 357.17705415 -49.6875 363.0625 C-50.26290527 363.39507812 -50.83831055 363.72765625 -51.43115234 364.0703125 C-78.34845816 379.51113998 -107.78751303 386.27836204 -138.6875 386.375 C-139.486185 386.37761841 -140.28487 386.38023682 -141.10775757 386.38293457 C-154.9671979 386.38778847 -168.14571938 385.15650128 -181.6875 382.0625 C-182.38456055 381.91296875 -183.08162109 381.7634375 -183.79980469 381.609375 C-190.04978749 380.25191267 -195.80960154 378.49790076 -201.6328125 375.890625 C-213.76274089 370.5568027 -221.03708439 369.38360942 -233.66308594 373.44628906 C-253.71033694 379.54846725 -285.36556328 379.32175992 -304.64453125 370.34765625 C-310.4379139 366.70325302 -315.32480736 361.85845394 -317.35546875 355.203125 C-318.35450681 348.76226786 -317.27808178 342.50628528 -313.6875 337.0625 C-309.50786749 331.84277461 -304.95224907 327.27689961 -299.8515625 322.96875 C-295.59176774 319.21643981 -291.66307203 315.11139201 -287.6875 311.0625 C-288.55954804 309.43591394 -289.43535484 307.81134309 -290.3125 306.1875 C-291.04339844 304.83011719 -291.04339844 304.83011719 -291.7890625 303.4453125 C-293.32996706 300.69958544 -294.93539084 298.03092523 -296.5859375 295.3515625 C-305.91750068 279.84533961 -311.73586111 262.64001282 -315.6875 245.0625 C-315.86394043 244.32273926 -316.04038086 243.58297852 -316.22216797 242.82080078 C-326.41418908 198.76985524 -315.35043373 148.96906905 -292.20922852 110.9699707 C-287.90527009 104.1361262 -283.04317468 98.10922948 -277.6875 92.0625 C-276.3239153 90.34075046 -274.96936265 88.61179987 -273.625 86.875 C-260.28853934 70.13063089 -241.69515413 55.80591935 -222.6875 46.0625 C-222.03249512 45.72299316 -221.37749023 45.38348633 -220.70263672 45.03369141 C-210.09418042 39.6306415 -199.27955923 35.80747484 -187.8125 32.625 C-186.625354 32.29508057 -185.43820801 31.96516113 -184.21508789 31.62524414 C-174.60237965 29.07487936 -164.68639091 26.83096878 -154.6875 27.0625 C-154.31625 25.9796875 -154.31625 25.9796875 -153.9375 24.875 C-150.99331035 18.25057329 -145.93756688 13.80273946 -139.29296875 11.08203125 C-130.23456234 8.11822086 -122.5072089 8.23378916 -113.6875 12.0625 C-106.21406496 16.39492611 -100.83940613 22.69919477 -98.05078125 30.9453125 C-96.29710846 41.16564211 -97.33187616 49.70814161 -103.16015625 58.2109375 C-108.09319511 64.48510986 -114.81447746 68.53967166 -122.6875 70.0625 C-131.45789529 70.91712318 -138.75174638 69.60482658 -145.984375 64.4140625 C-149.7345473 61.27979441 -152.28383021 58.34794186 -154.6875 54.0625 C-193.82658629 57.97640863 -230.57695022 76.38197373 -255.6875 107.0625 C-274.26476355 129.94945335 -288.25223088 157.21305849 -290.6875 187.0625 C-290.75163086 187.7834082 -290.81576172 188.50431641 -290.88183594 189.24707031 C-294.37186492 230.57636091 -283.31602586 268.59450358 -258.6015625 301.87109375 C-257.94929688 302.75925781 -257.29703125 303.64742188 -256.625 304.5625 C-256.03589844 305.3359375 -255.44679687 306.109375 -254.83984375 306.90625 C-253.6875 309.0625 -253.6875 309.0625 -253.97338867 311.00952148 C-255.16972542 314.44883627 -257.68479439 316.93701932 -260.0625 319.625 C-260.89817505 320.58128296 -260.89817505 320.58128296 -261.75073242 321.55688477 C-269.64880423 330.45110977 -278.19323461 338.74354093 -286.6875 347.0625 C-279.75399488 348.48673259 -273.08231406 349.45078764 -266 349.4375 C-265.11642822 349.43661377 -264.23285645 349.43572754 -263.32250977 349.43481445 C-249.27258256 349.19339835 -234.78463016 346.68568776 -221.34765625 342.578125 C-213.02907158 340.96571211 -207.28417429 342.64839397 -199.75 346.25 C-170.6676948 359.36177897 -136.90873898 363.54985363 -105.6875 356.0625 C-104.8821582 355.87445801 -104.07681641 355.68641602 -103.24707031 355.49267578 C-84.53389847 350.99163158 -66.1110876 343.75103077 -50.6875 332.0625 C-49.86233887 331.4427832 -49.86233887 331.4427832 -49.02050781 330.81054688 C-45.20602085 327.94070017 -41.43465159 325.0199834 -37.6875 322.0625 C-36.84058594 321.40765625 -35.99367188 320.7528125 -35.12109375 320.078125 C-22.73904203 309.8226857 -13.7422482 295.79530388 -5.6875 282.0625 C-5.05070312 281.00804687 -4.41390625 279.95359375 -3.7578125 278.8671875 C5.5862899 262.629214 9.93597273 244.95285601 11.9375 226.5 C12.0715625 225.30052734 12.205625 224.10105469 12.34375 222.86523438 C12.67102543 219.93144392 12.99383322 216.99723584 13.3125 214.0625 C11.89892212 213.85210083 11.89892212 213.85210083 10.45678711 213.63745117 C5.55011651 212.74023794 2.25394151 209.99614736 -1.6875 207.0625 C-2.31011719 206.60746094 -2.93273437 206.15242187 -3.57421875 205.68359375 C-16.34205948 195.61278005 -24.11490966 177.86555493 -26.6875 162.0625 C-26.61417036 160.44215715 -26.52827331 158.82236062 -26.43359375 157.203125 C-26.31720441 148.85522457 -29.56676292 141.26500926 -32.3125 133.5 C-32.84140678 131.96863791 -33.36875918 130.43673805 -33.89453125 128.90429688 C-34.95030923 125.83250865 -36.01433714 122.76376171 -37.08398438 119.69677734 C-38.9643433 114.28710076 -40.7711956 108.85367762 -42.57455444 103.41795349 C-44.01586249 99.0743318 -45.47344682 94.73700722 -46.953125 90.40625 C-47.45199219 88.93671875 -47.45199219 88.93671875 -47.9609375 87.4375 C-48.623114 85.48805237 -49.28993257 83.54017651 -49.9609375 81.59375 C-55.84511251 64.17288541 -57.24605527 46.22821675 -49.34375 29.16015625 C-48.51392797 27.6717836 -47.65132535 26.20054057 -46.73828125 24.76171875 C-45.51559665 22.93013023 -45.51559665 22.93013023 -44.6875 20.0625 C-43.35416667 19.72916667 -42.02083333 19.39583333 -40.6875 19.0625 C-40.3575 18.0725 -40.0275 17.0825 -39.6875 16.0625 C-34.47625832 9.8741505 -27.65425678 6.18237342 -19.8046875 4.52734375 C-13.12139015 3.05997773 -6.88751525 -0.09981906 0 0 Z " fill="#373B92" transform="translate(374.6875,65.9375)"/>
<path d="M0 0 C16.17 0 32.34 0 49 0 C49 19.47 49 38.94 49 59 C68.14 59 87.28 59 107 59 C108.57760373 64.52161306 109.28640688 68.6074891 109.23046875 74.1640625 C109.23001053 74.91916107 109.22955231 75.67425964 109.2290802 76.45223999 C109.22607798 78.03718655 109.21825318 79.62213069 109.20581055 81.20703125 C109.18749919 83.6251069 109.18530163 86.04279955 109.18554688 88.4609375 C109.1806325 90.00781579 109.17480453 91.55469151 109.16796875 93.1015625 C109.16685593 93.81937897 109.1657431 94.53719543 109.16459656 95.27676392 C109.12998611 98.95355679 109.05152344 102.45982932 108 106 C105.40672157 107.29663922 103.53591932 107.12003569 100.63232422 107.11352539 C99.49561279 107.11340454 98.35890137 107.11328369 97.18774414 107.11315918 C95.98883545 107.10804321 94.78992676 107.10292725 93.5546875 107.09765625 C92.45584229 107.09664917 91.35699707 107.09564209 90.22485352 107.09460449 C86.10822511 107.08936056 81.99161154 107.07539937 77.875 107.0625 C64.076875 107.0315625 64.076875 107.0315625 50 107 C49.67 126.47 49.34 145.94 49 166 C33.16 166 17.32 166 1 166 C1 146.86 1 127.72 1 108 C-18.47 108 -37.94 108 -58 108 C-58.020625 100.100625 -58.04125 92.20125 -58.0625 84.0625 C-58.071604 81.5656665 -58.08070801 79.06883301 -58.09008789 76.49633789 C-58.0930069 74.53011123 -58.09555549 72.56388396 -58.09765625 70.59765625 C-58.10277222 69.56636597 -58.10788818 68.53507568 -58.11315918 67.47253418 C-58.11334045 66.01091858 -58.11334045 66.01091858 -58.11352539 64.51977539 C-58.115746 63.66928116 -58.11796661 62.81878693 -58.12025452 61.94252014 C-58 60 -58 60 -57 59 C-55.22008076 58.90629376 -53.43643261 58.88255729 -51.65405273 58.88647461 C-49.91835022 58.88665588 -49.91835022 58.88665588 -48.14758301 58.88684082 C-46.30915833 58.89451477 -46.30915833 58.89451477 -44.43359375 58.90234375 C-43.31408325 58.90335083 -42.19457275 58.90435791 -41.0411377 58.90539551 C-36.83991478 58.9106465 -32.63870641 58.92460761 -28.4375 58.9375 C-19.053125 58.958125 -9.66875 58.97875 0 59 C0 39.53 0 20.06 0 0 Z " fill="#373B92" transform="translate(211,189)"/>
<path d="M0 0 C16.17 0 32.34 0 49 0 C49 19.47 49 38.94 49 59 C48.67 59 48.34 59 48 59 C48 40.19 48 21.38 48 2 C32.82 2 17.64 2 2 2 C2 21.14 2 40.28 2 60 C-1.85675407 60.77135081 -4.60625235 61.10392298 -8.43286133 61.02172852 C-9.49358353 61.00163223 -10.55430573 60.98153595 -11.64717102 60.96083069 C-12.7806749 60.93379562 -13.91417877 60.90676056 -15.08203125 60.87890625 C-16.83600471 60.84348976 -16.83600471 60.84348976 -18.62541199 60.80735779 C-22.35456965 60.73087814 -26.08351141 60.64678585 -29.8125 60.5625 C-32.34308845 60.50926363 -34.87368738 60.45652334 -37.40429688 60.40429688 C-43.60304084 60.27621525 -49.80143462 60.13784015 -56 60 C-56.33 75.18 -56.66 90.36 -57 106 C-37.2 106 -17.4 106 3 106 C3.84533045 109.38132181 4.12639252 111.76190906 4.12939453 115.17993164 C4.13254669 116.21102554 4.13569885 117.24211945 4.13894653 118.30445862 C4.1369223 119.41183884 4.13489807 120.51921906 4.1328125 121.66015625 C4.13376923 122.80157578 4.13472595 123.9429953 4.13571167 125.1190033 C4.13639188 127.53058935 4.13454866 129.94217724 4.13037109 132.35375977 C4.12501573 136.0516367 4.13032402 139.74939245 4.13671875 143.44726562 C4.13605804 145.78906277 4.13477702 148.13085984 4.1328125 150.47265625 C4.13483673 151.5820607 4.13686096 152.69146515 4.13894653 153.83448792 C4.13579437 154.86242966 4.13264221 155.8903714 4.12939453 156.94946289 C4.12859894 157.85451065 4.12780334 158.75955841 4.12698364 159.69203186 C4 162 4 162 3 165 C25.275 164.505 25.275 164.505 48 164 C48 144.86 48 125.72 48 106 C48.33 106 48.66 106 49 106 C49 125.8 49 145.6 49 166 C33.16 166 17.32 166 1 166 C1 146.86 1 127.72 1 108 C-18.47 108 -37.94 108 -58 108 C-58.020625 100.100625 -58.04125 92.20125 -58.0625 84.0625 C-58.071604 81.5656665 -58.08070801 79.06883301 -58.09008789 76.49633789 C-58.0930069 74.53011123 -58.09555549 72.56388396 -58.09765625 70.59765625 C-58.10277222 69.56636597 -58.10788818 68.53507568 -58.11315918 67.47253418 C-58.11334045 66.01091858 -58.11334045 66.01091858 -58.11352539 64.51977539 C-58.115746 63.66928116 -58.11796661 62.81878693 -58.12025452 61.94252014 C-58 60 -58 60 -57 59 C-55.22008076 58.90629376 -53.43643261 58.88255729 -51.65405273 58.88647461 C-49.91835022 58.88665588 -49.91835022 58.88665588 -48.14758301 58.88684082 C-46.30915833 58.89451477 -46.30915833 58.89451477 -44.43359375 58.90234375 C-43.31408325 58.90335083 -42.19457275 58.90435791 -41.0411377 58.90539551 C-36.83991478 58.9106465 -32.63870641 58.92460761 -28.4375 58.9375 C-19.053125 58.958125 -9.66875 58.97875 0 59 C0 39.53 0 20.06 0 0 Z " fill="#2C2D73" transform="translate(211,189)"/>
<path d="M0 0 C1.21236328 0.01353516 1.21236328 0.01353516 2.44921875 0.02734375 C3.37154297 0.04474609 3.37154297 0.04474609 4.3125 0.0625 C4.3125 0.7225 4.3125 1.3825 4.3125 2.0625 C4.869375 2.289375 5.42625 2.51625 6 2.75 C9.81335367 4.91433587 12.68664886 6.97273268 13.9921875 11.33203125 C14.77492183 16.53162358 14.49556121 20.66379593 11.8046875 25.23828125 C7.89658196 30.01599142 2.888755 33.14153354 -3.25 33.9375 C-4.9515625 33.999375 -4.9515625 33.999375 -6.6875 34.0625 C-7.0175 33.0725 -7.3475 32.0825 -7.6875 31.0625 C-10.68757271 29.35394978 -10.68757271 29.35394978 -13.6875 28.0625 C-14.1825 29.5475 -14.1825 29.5475 -14.6875 31.0625 C-16.66128635 31.52305015 -18.63656695 31.97880906 -20.62109375 32.390625 C-23.77036853 33.4145858 -25.4866296 35.67298357 -27.6875 38.0625 C-28.6775 38.0625 -29.6675 38.0625 -30.6875 38.0625 C-29.34014652 32.50466691 -25.32071168 29.08628025 -20.6875 26.0625 C-16.70048277 24.76707924 -12.66588627 24.57060515 -8.6875 26.0625 C-8.6875 26.7225 -8.6875 27.3825 -8.6875 28.0625 C0.27397151 28.61102504 0.27397151 28.61102504 8.3125 25.0625 C8.8075 23.5775 8.8075 23.5775 9.3125 22.0625 C9.9725 22.3925 10.6325 22.7225 11.3125 23.0625 C11.6425 19.4325 11.9725 15.8025 12.3125 12.0625 C11.6525 12.0625 10.9925 12.0625 10.3125 12.0625 C9.961875 11.11375 9.61125 10.165 9.25 9.1875 C7.56714476 5.83135369 7.56714476 5.83135369 4.1875 4.625 C-6.34454425 3.09615487 -17.11190873 6.83466193 -27.01953125 10.19140625 C-29.6875 11.0625 -29.6875 11.0625 -31.6875 11.0625 C-31.6875 11.7225 -31.6875 12.3825 -31.6875 13.0625 C-33.1484375 14.53515625 -33.1484375 14.53515625 -35.0625 16.125 C-35.68898438 16.65222656 -36.31546875 17.17945312 -36.9609375 17.72265625 C-38.6875 19.0625 -38.6875 19.0625 -40.6875 20.0625 C-40.97625 20.825625 -41.265 21.58875 -41.5625 22.375 C-42.6875 25.0625 -42.6875 25.0625 -44.75 27.0625 C-47.11774112 29.50661987 -47.16937902 30.7317223 -47.6875 34.0625 C-48.19208966 35.56804197 -48.71453515 37.06766063 -49.25 38.5625 C-50.3841287 41.8823039 -50.99074771 44.52461002 -50.6875 48.0625 C-50.6875 52.0625 -50.6875 52.0625 -52.6875 55.0625 C-53.13889459 57.1117094 -53.13889459 57.1117094 -53.3125 59.25 C-53.43625 60.508125 -53.56 61.76625 -53.6875 63.0625 C-54.0175 63.0625 -54.3475 63.0625 -54.6875 63.0625 C-55.38362083 49.60416396 -54.13709358 36.42114746 -46.73828125 24.76171875 C-45.51559665 22.93013023 -45.51559665 22.93013023 -44.6875 20.0625 C-43.35416667 19.72916667 -42.02083333 19.39583333 -40.6875 19.0625 C-40.3575 18.0725 -40.0275 17.0825 -39.6875 16.0625 C-34.47625832 9.8741505 -27.65425678 6.18237342 -19.8046875 4.52734375 C-13.12139015 3.05997773 -6.88751525 -0.09981906 0 0 Z " fill="#212579" transform="translate(374.6875,65.9375)"/>
<path d="M0 0 C0.66 0 1.32 0 2 0 C1.23846048 6.65157175 -3.21142267 10.65874766 -8 15 C-15.50995007 19.58477079 -23.31177277 20.80767053 -32 20 C-40.19133664 18.00328652 -47.18564298 13.44808808 -51.72265625 6.27734375 C-52.35494141 5.15005859 -52.35494141 5.15005859 -53 4 C-74.12287643 6.11228764 -93.4660335 11.71576491 -111.9296875 22.3125 C-115 24 -115 24 -117 24 C-115.60419277 19.8125783 -112.72560242 18.95053758 -109 17.0625 C-108.31446045 16.70841064 -107.6289209 16.35432129 -106.92260742 15.98950195 C-104.95445718 14.98043851 -102.97897002 13.98763649 -101 13 C-100.15050781 12.56945312 -99.30101562 12.13890625 -98.42578125 11.6953125 C-93.42353538 9.30976826 -88.34409683 7.96490429 -82.953125 6.71875 C-80.33846384 6.08237744 -77.85737426 5.30310349 -75.3125 4.4375 C-70.62353601 2.9970993 -65.91562195 2.30311478 -61.0625 1.6875 C-60.31589111 1.58687256 -59.56928223 1.48624512 -58.80004883 1.38256836 C-53.36311189 0.75792541 -53.36311189 0.75792541 -50 3 C-47 7.44444444 -47 7.44444444 -47 10 C-46.41992188 10.28875 -45.83984375 10.5775 -45.2421875 10.875 C-43.84728871 11.57487953 -42.4559409 12.28194156 -41.0703125 13 C-33.07119844 17.11199438 -26.97319175 18.94014957 -18 17 C-17.01 17 -16.02 17 -15 17 C-15 16.34 -15 15.68 -15 15 C-14.154375 14.67 -13.30875 14.34 -12.4375 14 C-6.82168184 10.73261489 -2.69991076 5.91598093 0 0 Z " fill="#2B2D73" transform="translate(273,116)"/>
<path d="M0 0 C2.15164368 6.45493103 -2.7159927 15.17995214 -5.47265625 21.234375 C-11.72960205 32.8566134 -21.54234972 43.12805443 -34 48 C-34.99 48 -35.98 48 -37 48 C-37.02578125 49.13953125 -37.0515625 50.2790625 -37.078125 51.453125 C-37.65221335 69.37042249 -41.22872649 86.06462364 -47 103 C-47.33 103 -47.66 103 -48 103 C-47.67 98.71 -47.34 94.42 -47 90 C-46.34 90 -45.68 90 -45 90 C-45.020625 89.0925 -45.04125 88.185 -45.0625 87.25 C-44.99567578 83.77514049 -44.3232989 81.06042038 -43.31640625 77.7578125 C-41.00280623 69.67819377 -40.28088928 61.66329285 -39.64672852 53.30322266 C-39.57510498 52.37429199 -39.50348145 51.44536133 -39.4296875 50.48828125 C-39.34050049 49.22818237 -39.34050049 49.22818237 -39.24951172 47.94262695 C-39 46 -39 46 -38 45 C-36.00041636 44.95919217 -33.99954746 44.95745644 -32 45 C-31.67 44.34 -31.34 43.68 -31 43 C-30.319375 42.773125 -29.63875 42.54625 -28.9375 42.3125 C-20.94430019 38.7410703 -13.14119169 30.42331035 -9.9296875 22.2890625 C-9 20 -9 20 -7 19 C-6.23258822 16.92364435 -5.55904144 14.81208463 -4.9375 12.6875 C-4.59589844 11.53636719 -4.25429688 10.38523438 -3.90234375 9.19921875 C-3.2272497 6.8057035 -2.5791163 4.41795982 -2 2 C-1.34 2 -0.68 2 0 2 C0 1.34 0 0.68 0 0 Z " fill="#292A77" transform="translate(453,230)"/>
<path d="M0 0 C0.66 0.66 1.32 1.32 2 2 C1.80664062 2.67804688 1.61328125 3.35609375 1.4140625 4.0546875 C-3.64852589 22.14968165 -5.18909897 39.89304841 -5.1875 58.625 C-5.18840637 59.3191803 -5.18931274 60.0133606 -5.19024658 60.72857666 C-5.18913983 68.21706613 -5.0741013 75.58344985 -4 83 C-3.855625 84.17304688 -3.71125 85.34609375 -3.5625 86.5546875 C-2.9213349 90.48182371 -2.00365054 94.27767292 -1 98.125 C0.10244289 102.39896338 1.18920361 106.658861 2 111 C1.01 111.495 1.01 111.495 0 112 C-10.56946829 74.69353682 -11.5089828 37.25635144 0 0 Z " fill="#292B77" transform="translate(64,218)"/>
<path d="M0 0 C-2.274694 2.55263088 -4.43202693 3.84144815 -7.5625 5.1875 C-8.34753906 5.53167969 -9.13257813 5.87585938 -9.94140625 6.23046875 C-12 7 -12 7 -14 7 C-14 7.66 -14 8.32 -14 9 C-15.65234375 10.26171875 -15.65234375 10.26171875 -17.9375 11.6875 C-28.30646241 18.38344437 -37.47557842 26.41842454 -46.25 35.0625 C-47.01147339 35.80439575 -47.01147339 35.80439575 -47.78833008 36.5612793 C-50.25712579 39.02436304 -52.36190312 41.42134484 -54.234375 44.37109375 C-54.81703125 45.23863281 -55.3996875 46.10617188 -56 47 C-56.66 47 -57.32 47 -58 47 C-58.28230469 47.58007812 -58.56460938 48.16015625 -58.85546875 48.7578125 C-61.90426985 54.73054913 -65.63772308 59.93032683 -70 65 C-70.66 65.99 -71.32 66.98 -72 68 C-72.66 67.67 -73.32 67.34 -74 67 C-68.66575238 57.84449136 -62.21513711 49.81543928 -55.42871094 41.71044922 C-54.31802759 40.38074184 -53.22234142 39.03850163 -52.1328125 37.69140625 C-43.63653635 27.45625493 -13.91233667 -4.63744556 0 0 Z " fill="#2B2D74" transform="translate(155,113)"/>
<path d="M0 0 C2.43884666 1.17002238 4.47665773 2.34363697 6.6875 3.9375 C10.63592891 6.39595574 14.56157704 7.6980626 19 9 C19.33 8.34 19.66 7.68 20 7 C20 7.66 20 8.32 20 9 C20.99 8.67 21.98 8.34 23 8 C23.33 8.99 23.66 9.98 24 11 C28.29 11 32.58 11 37 11 C37 11.66 37 12.32 37 13 C40.47951523 12.86181468 43.95850495 12.71317399 47.4375 12.5625 C48.43072266 12.52318359 49.42394531 12.48386719 50.44726562 12.44335938 C51.86362305 12.38051758 51.86362305 12.38051758 53.30859375 12.31640625 C54.18314209 12.27974854 55.05769043 12.24309082 55.95874023 12.20532227 C57.9927402 12.21818934 57.9927402 12.21818934 59 11 C61.86267567 10.92674832 64.700719 10.90761795 67.5625 10.9375 C68.36880859 10.94201172 69.17511719 10.94652344 70.00585938 10.95117188 C72.00393756 10.96299482 74.00197783 10.98093086 76 11 C76.33 10.34 76.66 9.68 77 9 C79.0390625 8.4375 79.0390625 8.4375 81.625 8 C84.81436806 7.43128244 87.70472622 6.78049511 90.8125 5.8125 C95.76439882 4.55025128 98.49921933 5.63357842 102.8125 8.0625 C103.864375 8.701875 104.91625 9.34125 106 10 C105.34 10.33 104.68 10.66 104 11 C102.845 10.443125 101.69 9.88625 100.5 9.3125 C93.37925192 6.77101114 86.26274672 9.69948072 79.21777344 11.46435547 C58.00298444 16.58822679 28.23115542 17.46839679 7.921875 8.25 C4.59185672 6.08413445 2.24242973 3.24514221 0 0 Z " fill="#2F327B" transform="translate(62,428)"/>
<path d="M0 0 C0.66 0 1.32 0 2 0 C1.81896729 0.60223389 1.63793457 1.20446777 1.45141602 1.82495117 C0.63309697 4.54961449 -0.18341843 7.2748155 -1 10 C-1.25668457 10.85287598 -1.51336914 11.70575195 -1.77783203 12.58447266 C-8.94459871 36.51528156 -10.84872436 59.11332588 -9 84 C-9.66 84 -10.32 84 -11 84 C-13.9500018 78.09999639 -13.19261398 69.90604528 -13.1875 63.4375 C-13.18814453 62.57777588 -13.18878906 61.71805176 -13.18945312 60.83227539 C-13.13248952 53.81992652 -12.45105182 47.02281973 -11.4375 40.08984375 C-10.92990273 37.02504859 -10.92990273 37.02504859 -11 34 C-10.57965992 32.44754396 -10.11606955 30.90655354 -9.625 29.375 C-8.60306497 26.09530154 -7.72797079 22.86932058 -7.0625 19.5 C-6.15725598 15.15173383 -4.5726842 11.22916439 -2.8046875 7.1640625 C-1.82573683 4.91615524 -1.82573683 4.91615524 -2 2 C-1.34 1.34 -0.68 0.68 0 0 Z " fill="#2A2C7B" transform="translate(93,209)"/>
<path d="M0 0 C-9.75871297 9.75871297 -38.93634434 11.1470073 -52.1640625 11.16796875 C-53.29586441 11.17296135 -53.29586441 11.17296135 -54.45053101 11.17805481 C-56.03879189 11.18308439 -57.62706319 11.18546437 -59.21533203 11.18530273 C-61.59816736 11.18747553 -63.98052833 11.20563606 -66.36328125 11.22460938 C-75.77369067 11.25798482 -84.71114852 10.65637733 -94 9 C-92 7 -92 7 -89.21484375 6.98828125 C-87.59255859 7.14876953 -87.59255859 7.14876953 -85.9375 7.3125 C-84.85339844 7.41175781 -83.76929688 7.51101563 -82.65234375 7.61328125 C-80 8 -80 8 -79 9 C-77.24012034 9.00451299 -75.47996498 8.93894891 -73.72265625 8.84375 C-72.65208984 8.79089844 -71.58152344 8.73804688 -70.47851562 8.68359375 C-68.20506686 8.56140725 -65.93162931 8.43901214 -63.65820312 8.31640625 C-62.58634766 8.26355469 -61.51449219 8.21070313 -60.41015625 8.15625 C-59.42152588 8.10275391 -58.43289551 8.04925781 -57.41430664 7.99414062 C-55 8 -55 8 -53 9 C-49.13823615 9.17163395 -45.76736716 8.77279326 -42 8 C-40.33333333 8 -38.66666667 8 -37 8 C-36.34 7.67 -35.68 7.34 -35 7 C-32.875 7.4375 -32.875 7.4375 -31 8 C-31 7.34 -31 6.68 -31 6 C-29.99839844 5.80664062 -28.99679687 5.61328125 -27.96484375 5.4140625 C-26.62236492 5.15119951 -25.27991873 4.88816974 -23.9375 4.625 C-23.28072266 4.49867188 -22.62394531 4.37234375 -21.94726562 4.2421875 C-14.14464932 2.80474226 -14.14464932 2.80474226 -6.875 -0.1875 C-4.30990885 -1.2990395 -2.63522798 -0.73200777 0 0 Z " fill="#2F317B" transform="translate(297,441)"/>
<path d="M0 0 C0.33 0 0.66 0 1 0 C2.3418062 10.11515442 3.55571117 21.09679704 -2 30 C-2.55441249 32.04355909 -3.03002819 34.10964686 -3.4375 36.1875 C-5.43136733 45.28197651 -9.02064421 53.22220645 -13.0625 61.5625 C-13.4030542 62.27833252 -13.7436084 62.99416504 -14.09448242 63.73168945 C-14.98571137 65.52824564 -15.98600931 67.26976127 -17 69 C-18.485 69.495 -18.485 69.495 -20 70 C-18.93861679 66.07288214 -17.36365985 62.84829735 -15.3125 59.375 C-12.34152027 54.06081513 -10.25263 48.60479091 -8.25 42.875 C-7.95649658 42.0401709 -7.66299316 41.2053418 -7.3605957 40.34521484 C-4.11211204 30.81845691 -2.55429646 21.41940218 -1.375 11.4375 C-1.2409375 10.33341797 -1.106875 9.22933594 -0.96875 8.09179688 C-0.64186353 5.39498349 -0.3190373 2.69775124 0 0 Z " fill="#2A2C7A" transform="translate(388,282)"/>
<path d="M0 0 C0.66 0.33 1.32 0.66 2 1 C-0.54628856 16.24371278 -10.86005833 31.73744336 -20 44 C-20.48065918 44.6492041 -20.96131836 45.2984082 -21.45654297 45.96728516 C-22.93517495 47.94852756 -24.43041102 49.915334 -25.9375 51.875 C-26.39833984 52.47707275 -26.85917969 53.07914551 -27.33398438 53.69946289 C-30.638312 57.87943733 -30.638312 57.87943733 -34 59 C-34 58.01 -34 57.02 -34 56 C-33.01 56 -32.02 56 -31 56 C-30.7525 55.113125 -30.505 54.22625 -30.25 53.3125 C-28.74346596 49.3201848 -26.91875337 45.95937668 -23 44 C-22.67 43.01 -22.34 42.02 -22 41 C-21.34 41 -20.68 41 -20 41 C-19.71125 40.278125 -19.4225 39.55625 -19.125 38.8125 C-18.75375 37.884375 -18.3825 36.95625 -18 36 C-17.690625 35.13375 -17.38125 34.2675 -17.0625 33.375 C-16 31 -16 31 -14.5625 29.625 C-12.68426794 27.67163866 -11.88692352 25.58679463 -10.8828125 23.09765625 C-8.73037249 17.98323021 -6.21402974 12.97841883 -3.3125 8.25 C-1.76623799 5.59926513 -0.88584018 2.93008675 0 0 Z " fill="#2A2D7D" transform="translate(403,333)"/>
<path d="M0 0 C15.51 0 31.02 0 47 0 C47 0.33 47 0.66 47 1 C49.97 1.33 52.94 1.66 56 2 C56 2.33 56 2.66 56 3 C37.85 3 19.7 3 1 3 C0.67 2.01 0.34 1.02 0 0 Z " fill="#1D1C59" transform="translate(260,293)"/>
<path d="M0 0 C19.14 0 38.28 0 58 0 C60.25 7.875 60.25 7.875 60.22705078 11.00756836 C60.22689972 11.70776596 60.22674866 12.40796356 60.22659302 13.12937927 C60.21627045 13.85883255 60.20594788 14.58828583 60.1953125 15.33984375 C60.1924826 16.10680069 60.18965271 16.87375763 60.18673706 17.66395569 C60.17563475 20.08863621 60.15054967 22.51293309 60.125 24.9375 C60.1149573 26.5917915 60.10583372 28.24608885 60.09765625 29.90039062 C60.07572817 33.93373923 60.04126843 37.9668048 60 42 C57.1879649 39.1879649 57.68467807 36.49192537 57.65625 32.7265625 C57.6416272 32.00640961 57.62700439 31.28625671 57.61193848 30.54428101 C57.56537351 28.23791053 57.53122255 25.93162619 57.5 23.625 C57.45881118 20.59603746 57.40508346 17.56767657 57.34375 14.5390625 C57.3384729 13.84414703 57.3331958 13.14923157 57.32775879 12.43325806 C57.25375893 8.82587585 57.0895506 6.01320592 55 3 C52.49065701 1.7453285 50.71622645 1.84126442 47.90771484 1.79467773 C46.84676605 1.77473251 45.78581726 1.75478729 44.69271851 1.73423767 C43.54373077 1.71752518 42.39474304 1.70081268 41.2109375 1.68359375 C40.03737701 1.66281265 38.86381653 1.64203156 37.6546936 1.62062073 C33.89485696 1.55508017 30.13494878 1.49621924 26.375 1.4375 C23.83072168 1.39431908 21.28645067 1.35070493 18.7421875 1.30664062 C12.49486793 1.19939418 6.24747674 1.0976362 0 1 C0 0.67 0 0.34 0 0 Z " fill="#1E1F5C" transform="translate(260,248)"/>
<path d="M0 0 C2.66142977 2.21161066 3.88047828 3.51211626 4.71484375 6.91796875 C5.20582955 14.12770764 4.81158563 19.37842894 2 26 C1.32795863 27.89393476 0.66149382 29.78985557 0 31.6875 C-1.10660721 34.7391822 -2.25104031 37.48414917 -3.75 40.375 C-5.19287256 42.8407147 -5.19287256 42.8407147 -4.828125 45.14453125 C-5.08413337 49.39776117 -7.03057054 52.58987912 -9 56.3125 C-9.3815625 57.05306641 -9.763125 57.79363281 -10.15625 58.55664062 C-11.09515671 60.37577238 -12.04637594 62.18854001 -13 64 C-14.15154129 60.54537613 -13.86731132 59.99189475 -12.55859375 56.74609375 C-12.22480713 55.89990479 -11.89102051 55.05371582 -11.54711914 54.18188477 C-11.18094482 53.27623779 -10.81477051 52.37059082 -10.4375 51.4375 C-7.65800778 44.35981131 -4.97142048 37.27561317 -2.5625 30.0625 C-2.3162085 29.33667725 -2.06991699 28.61085449 -1.81616211 27.86303711 C1.30637404 18.42221821 1.65560601 9.7266853 0 0 Z " fill="#2A2D77" transform="translate(463,110)"/>
<path d="M0 0 C5.82099737 0.73616264 11.38922578 1.99682705 17.06835938 3.45117188 C30.17581728 6.66990337 42.96426002 7.27173188 56.375 7.125 C57.99739023 7.11493716 59.61978659 7.10581722 61.2421875 7.09765625 C65.16161383 7.07593419 69.08073625 7.04159219 73 7 C73 7.33 73 7.66 73 8 C67.83826997 8.84850936 62.87097743 9.16006166 57.64453125 9.16796875 C56.47019783 9.17296135 56.47019783 9.17296135 55.2721405 9.17805481 C53.62243227 9.18309182 51.97271396 9.18546414 50.32299805 9.18530273 C47.83689982 9.18747864 45.35125372 9.20563965 42.86523438 9.22460938 C30.88298176 9.26855838 19.77674002 8.2053861 8.3125 4.5 C7.61189453 4.28730469 6.91128906 4.07460938 6.18945312 3.85546875 C4.43786769 3.30162117 2.71510309 2.65819454 1 2 C0.67 1.34 0.34 0.68 0 0 Z " fill="#2B2D73" transform="translate(186,418)"/>
<path d="M0 0 C0.99 0.33 1.98 0.66 3 1 C-7.79466258 10.49152313 -19.30288395 17.64607598 -31.9375 24.4375 C-33.14515015 25.09395508 -33.14515015 25.09395508 -34.37719727 25.76367188 C-38.59580288 27.98774719 -42.1678589 29.57340648 -47 30 C-45.69807157 27.39614315 -44.59542175 27.22828827 -41.9375 26.125 C-36.15988343 23.65280274 -30.58916445 20.96608533 -25.1875 17.75 C-22 16 -22 16 -19 16 C-18.67 15.01 -18.34 14.02 -18 13 C-15.9375 12.3125 -15.9375 12.3125 -14 12 C-14 11.34 -14 10.68 -14 10 C-13.0925 9.5875 -12.185 9.175 -11.25 8.75 C-8.15513347 7.08353341 -6.37397206 5.53223687 -4 3 C-1.9375 1.1875 -1.9375 1.1875 0 0 Z " fill="#2C2E7B" transform="translate(349,409)"/>
<path d="M0 0 C0 0.66 0 1.32 0 2 C-1.16015625 2.16435547 -1.16015625 2.16435547 -2.34375 2.33203125 C-9.33026071 3.35445606 -9.33026071 3.35445606 -16 5.5625 C-20.39741739 7.41257624 -24.83596167 7.54081401 -29.55859375 7.7890625 C-31.94603299 7.73149468 -31.94603299 7.73149468 -33 9 C-35.07262076 9.08767112 -37.14820294 9.10695873 -39.22265625 9.09765625 C-40.48271484 9.09443359 -41.74277344 9.09121094 -43.04101562 9.08789062 C-44.38151109 9.07953403 -45.72200588 9.07106907 -47.0625 9.0625 C-48.40689942 9.0574866 -49.7513006 9.05292342 -51.09570312 9.04882812 C-54.39717941 9.03699488 -57.69856803 9.02050971 -61 9 C-61 8.67 -61 8.34 -61 8 C-59.8346875 7.97421875 -58.669375 7.9484375 -57.46875 7.921875 C-40.5462567 7.39348449 -23.57168989 5.22346805 -7.26953125 0.515625 C-4.78380646 -0.04911798 -2.5407796 -0.0902586 0 0 Z " fill="#2B2E76" transform="translate(161,408)"/>
<path d="M0 0 C2.6242089 1.26685947 5.11270951 2.67802406 7.62890625 4.1484375 C8.86324132 4.83185656 10.09901227 5.5126864 11.3359375 6.19140625 C12.62186069 6.90486944 13.9070214 7.61970867 15.19140625 8.3359375 C16.12194824 8.85317383 16.12194824 8.85317383 17.07128906 9.38085938 C21.51216888 11.91496277 21.51216888 11.91496277 22.62890625 14.1484375 C16.9438809 12.50277227 11.86208989 9.85810966 6.62890625 7.1484375 C6.62890625 6.4884375 6.62890625 5.8284375 6.62890625 5.1484375 C5.51515625 4.8390625 4.40140625 4.5296875 3.25390625 4.2109375 C-0.37109375 3.1484375 -0.37109375 3.1484375 -2.37109375 2.1484375 C-7.74798942 1.59912792 -12.01189243 1.60658642 -16.37109375 5.1484375 C-16.70109375 5.8084375 -17.03109375 6.4684375 -17.37109375 7.1484375 C-18.03109375 7.1484375 -18.69109375 7.1484375 -19.37109375 7.1484375 C-19.49484375 7.6846875 -19.61859375 8.2209375 -19.74609375 8.7734375 C-20.49315391 11.6122661 -21.42412739 14.37066952 -22.37109375 17.1484375 C-22.70109375 17.1484375 -23.03109375 17.1484375 -23.37109375 17.1484375 C-22.86594095 11.18763449 -22.33694026 7.13906825 -17.96875 2.734375 C-12.52576661 -1.85053807 -6.65562343 -2.39032275 0 0 Z " fill="#272872" transform="translate(443.37109375,66.8515625)"/>
<path d="M0 0 C-0.33 0.99 -0.66 1.98 -1 3 C-1.7425 3.28875 -2.485 3.5775 -3.25 3.875 C-7.80578373 5.73872971 -10.38324174 8.76648347 -12.5625 13.125 C-16.43319828 17.690439 -21.27733499 17.99671848 -27 19 C-28.18980469 19.2165625 -29.37960938 19.433125 -30.60546875 19.65625 C-39.63941909 21.18029046 -39.63941909 21.18029046 -42 20 C-42 20.66 -42 21.32 -42 22 C-43.32 21.34 -44.64 20.68 -46 20 C-35.95881111 17.41454418 -26.4022955 15.36181897 -16 15 C-15.70480469 14.2265625 -15.40960938 13.453125 -15.10546875 12.65625 C-12.62585889 6.69817685 -6.84721228 0 0 0 Z " fill="#2A2C74" transform="translate(236,78)"/>
<path d="M0 0 C1.32 0.33 2.64 0.66 4 1 C2.29314307 2.56411267 0.58444032 4.12621117 -1.125 5.6875 C-1.6312793 6.1501123 -2.13755859 6.61272461 -2.65917969 7.08935547 C-5.13572767 9.34242562 -7.62229818 11.55012069 -10.25 13.625 C-18.29986763 20.57715841 -24.50097124 29.63235357 -31 38 C-31.495 36.515 -31.495 36.515 -32 35 C-31.109375 33.28125 -31.109375 33.28125 -29.75 31.5 C-29.31171875 30.9121875 -28.8734375 30.324375 -28.421875 29.71875 C-26.55816811 27.46591749 -24.52101622 25.48093805 -22.375 23.5 C-20.751108 21.9332241 -20.751108 21.9332241 -20 19 C-19.01 19 -18.02 19 -17 19 C-16.814375 18.29875 -16.62875 17.5975 -16.4375 16.875 C-14.47932486 12.95864972 -11.59323769 10.4661136 -8 8 C-7.34 8 -6.68 8 -6 8 C-5.731875 7.360625 -5.46375 6.72125 -5.1875 6.0625 C-4 4 -4 4 -1 3 C-0.67 2.01 -0.34 1.02 0 0 Z " fill="#2A2A72" transform="translate(140,148)"/>
<path d="M0 0 C0 0.99 0 1.98 0 3 C-0.639375 3.61875 -1.27875 4.2375 -1.9375 4.875 C-4.40507943 7.41735456 -4.46301012 8.54792218 -5 12 C-5.50458966 13.50554197 -6.02703515 15.00516063 -6.5625 16.5 C-7.6966287 19.8198039 -8.30324771 22.46211002 -8 26 C-8 30 -8 30 -10 33 C-10.45139459 35.0492094 -10.45139459 35.0492094 -10.625 37.1875 C-10.74875 38.445625 -10.8725 39.70375 -11 41 C-11.33 41 -11.66 41 -12 41 C-12.70427283 27.38405857 -11.68863693 13.86505611 -3.3671875 2.50390625 C-2 1 -2 1 0 0 Z " fill="#2C2F79" transform="translate(332,88)"/>
<path d="M0 0 C1 3 1 3 0 6 C-0.66 6 -1.32 6 -2 6 C-2.33 6.99 -2.66 7.98 -3 9 C-8.82671506 13.87541464 -14.31571881 16.34821691 -22 16.0625 C-26.52276489 15.3653149 -29.17131854 12.6291926 -32.3359375 9.49609375 C-33.87492672 7.77714038 -33.87492672 7.77714038 -36 8 C-36.33 6.35 -36.66 4.7 -37 3 C-36.34 2.67 -35.68 2.34 -35 2 C-34.29875 3.093125 -33.5975 4.18625 -32.875 5.3125 C-29.71412431 9.71991822 -26.36654321 11.24700898 -21.25 12.875 C-15.47635308 13.09706334 -10.24119961 11.98228846 -5.8359375 8.0859375 C-3.57193311 5.52379261 -1.53240026 3.06480053 0 0 Z " fill="#1F2269" transform="translate(421,239)"/>
<path d="M0 0 C3.58128772 3.38232729 6.60604303 6.67246241 9 11 C8.62549345 14.25869333 7.3593084 16.0946597 5.234375 18.53125 C4.67363281 19.17707031 4.11289063 19.82289063 3.53515625 20.48828125 C2.94605469 21.15214844 2.35695313 21.81601562 1.75 22.5 C0.88955078 23.49580078 0.88955078 23.49580078 0.01171875 24.51171875 C-3.09464191 28.05679094 -6.18572215 31.18947948 -10 34 C-8.58313478 29.49179248 -6.33393063 27.27653153 -3 24 C-1.34677476 22.14983884 0.27887976 20.27464475 1.875 18.375 C2.67679688 17.43398438 3.47859375 16.49296875 4.3046875 15.5234375 C4.86414063 14.69070313 5.42359375 13.85796875 6 13 C4.97407374 9.92222122 4.24530756 9.15549526 2 7 C0 4 0 4 0 0 Z " fill="#2A2C78" transform="translate(112,364)"/>
<path d="M0 0 C1.32 0.33 2.64 0.66 4 1 C3.34 1 2.68 1 2 1 C2 1.66 2 2.32 2 3 C0.66666667 4.33333333 -0.66666667 5.66666667 -2 7 C-2 7.66 -2 8.32 -2 9 C-2.66 9 -3.32 9 -4 9 C-3.938125 10.051875 -3.938125 10.051875 -3.875 11.125 C-4 14 -4 14 -5.1875 16.6875 C-6.38856024 21.58413022 -4.70272735 25.36784925 -3 30 C-3.99 30 -4.98 30 -6 30 C-8.95518712 23.61679583 -9.50963264 18.89785992 -8 12 C-6.15762905 7.20983553 -3.35406132 3.80731285 0 0 Z " fill="#302F7C" transform="translate(66,397)"/>
<path d="M0 0 C1.88017842 2.82026763 2.90565166 5.41435088 4.00488281 8.59643555 C6.49716783 16.29249135 6.49716783 16.29249135 11.25 22.6875 C15.62845847 26.95133914 15.49459666 33.20528929 16 39 C13.7349138 36.26152276 13.02376895 35.21788204 12.625 31.5625 C11.85294509 27.16178701 10.25418358 25.93670225 7 23 C6.28503117 21.69193204 5.62119842 20.35511429 5 19 C4.65839844 18.33742187 4.31679688 17.67484375 3.96484375 16.9921875 C1.21871282 11.33286064 0.26165592 6.26665928 0 0 Z " fill="#25256F" transform="translate(363,191)"/>
<path d="M0 0 C3.91037698 2.60691799 3.950779 4.4578931 5.125 8.9375 C5.45757812 10.18402344 5.79015625 11.43054688 6.1328125 12.71484375 C6.41898437 13.79894531 6.70515625 14.88304687 7 16 C7.33 16.99 7.66 17.98 8 19 C8.66 19.33 9.32 19.66 10 20 C10.96484375 21.671875 10.96484375 21.671875 11.9375 23.75 C13.13054191 26.25269694 14.32806317 28.52037606 15.8125 30.875 C16.204375 31.57625 16.59625 32.2775 17 33 C16.67 33.66 16.34 34.32 16 35 C8.32759612 25.95049799 0 12.21111603 0 0 Z " fill="#272A75" transform="translate(349,230)"/>
<path d="M0 0 C2.37039216 3.55558824 3.51410792 7.22150486 4.8125 11.25 C5.34075562 12.87122095 5.86940831 14.49231257 6.3984375 16.11328125 C6.66366211 16.92877441 6.92888672 17.74426758 7.20214844 18.58447266 C7.9574948 20.87131383 8.74097623 23.1457399 9.5390625 25.41796875 C9.77520264 26.09762695 10.01134277 26.77728516 10.25463867 27.47753906 C10.90336532 29.33952602 11.55891678 31.19913105 12.21484375 33.05859375 C13 36 13 36 12 39 C9.365836 34.07692651 7.40501312 29.43271741 6 24 C4.04539688 17.01501868 4.04539688 17.01501868 1.3125 10.3125 C-0.14030788 6.64588964 -0.23926454 3.90798741 0 0 Z " fill="#282A79" transform="translate(347,145)"/>
<path d="M0 0 C6.00423901 0.8547335 9.72874735 3.82633308 14 8 C19.18233072 15.02469777 21.14182841 20.37576305 21.1875 29.0625 C21.20167969 30.29097656 21.21585937 31.51945312 21.23046875 32.78515625 C21 36 21 36 19 39 C19.04640625 38.11699219 19.0928125 37.23398438 19.140625 36.32421875 C19.38397917 28.23269262 18.95938601 21.20999304 15 14 C13.67913857 12.65431035 12.3469516 11.31957453 11 10 C10.67 9.01 10.34 8.02 10 7 C6.99992729 5.29144978 6.99992729 5.29144978 4 4 C4 3.34 4 2.68 4 2 C2.68 1.34 1.36 0.68 0 0 Z " fill="#25286F" transform="translate(256,77)"/>
<path d="M0 0 C3.24783658 2.16522438 3.46012647 2.55292685 4.5 6.0625 C4.74878906 6.87074219 4.99757813 7.67898437 5.25390625 8.51171875 C5.50011719 9.33285156 5.74632812 10.15398437 6 11 C6.47299704 12.46034606 6.95207886 13.91873659 7.4375 15.375 C7.68113281 16.11234375 7.92476563 16.8496875 8.17578125 17.609375 C9.10450428 20.30311193 10.11657744 22.96014327 11.125 25.625 C12.6631092 29.79902918 13.60678006 33.57627567 14 38 C13.01 38.495 13.01 38.495 12 39 C10.6089982 34.73272837 9.22160666 30.46430424 7.83740234 26.19482422 C7.3670145 24.74561698 6.89567898 23.29671696 6.42333984 21.84814453 C5.74060518 19.75375131 5.06140173 17.65823951 4.3828125 15.5625 C4.17439728 14.92570313 3.96598206 14.28890625 3.75125122 13.6328125 C2.29708602 9.1258886 1.11000871 4.60051802 0 0 Z " fill="#282B73" transform="translate(328,155)"/>
<path d="M0 0 C2.80894162 3.45247624 4.78505308 7.24998984 6.8125 11.1875 C9.87398489 17.04372795 13.14916534 22.61758338 17 28 C16.67 28.66 16.34 29.32 16 30 C11.2 26.67692308 11.2 26.67692308 10.1875 23.25 C10.125625 22.5075 10.06375 21.765 10 21 C9.34 21 8.68 21 8 21 C7.59007813 20.16855469 7.18015625 19.33710938 6.7578125 18.48046875 C6.21898438 17.39378906 5.68015625 16.30710937 5.125 15.1875 C4.59132813 14.10855469 4.05765625 13.02960938 3.5078125 11.91796875 C2.02778861 8.92161735 2.02778861 8.92161735 0 6 C-0.125 2.8125 -0.125 2.8125 0 0 Z " fill="#282B74" transform="translate(95,334)"/>
<path d="M0 0 C0.99 0.66 1.98 1.32 3 2 C-1.62 6.62 -6.24 11.24 -11 16 C-7.37 16.66 -3.74 17.32 0 18 C0 18.33 0 18.66 0 19 C-4.62 19 -9.24 19 -14 19 C-14.33 18.01 -14.66 17.02 -15 16 C-13.6875 13.8125 -13.6875 13.8125 -12 12 C-11.34 12 -10.68 12 -10 12 C-10 11.34 -10 10.68 -10 10 C-9.34 10 -8.68 10 -8 10 C-7.7525 9.4225 -7.505 8.845 -7.25 8.25 C-5.81700012 5.67060021 -4.21575324 3.93878408 -2 2 C-1.34 2 -0.68 2 0 2 C0 1.34 0 0.68 0 0 Z " fill="#2A2C77" transform="translate(99,397)"/>
<path d="M0 0 C3.83968859 1.4564336 5.31006462 3.28214217 7 7 C7.6875 9.875 7.6875 9.875 7 13 C4.57553728 15.64114176 1.80363225 17.7769707 -1 20 C-3.61803561 22.55715106 -6.15922745 25.16663338 -8.6875 27.8125 C-11 30 -11 30 -13 30 C-13 29.34 -13 28.68 -13 28 C-11.6015625 26.625 -11.6015625 26.625 -9.625 25 C-4.45856503 20.62056677 0.25777524 15.82968383 5 11 C4.6390625 10.37351562 4.278125 9.74703125 3.90625 9.1015625 C3.4421875 8.28429687 2.978125 7.46703125 2.5 6.625 C2.0359375 5.81289063 1.571875 5.00078125 1.09375 4.1640625 C0 2 0 2 0 0 Z " fill="#2B2C73" transform="translate(82,366)"/>
<path d="M0 0 C0.33 0 0.66 0 1 0 C0.96318322 9.18578752 -1.86074817 15.91100425 -6 24 C-6.46277344 24.99386719 -6.92554688 25.98773438 -7.40234375 27.01171875 C-9.82399196 32.17152238 -9.82399196 32.17152238 -11 34 C-12.485 34.495 -12.485 34.495 -14 35 C-12.92641185 31.02772384 -11.32008805 27.76698205 -9.25 24.25 C-4.95768813 16.62744615 -2.58025488 8.31720455 0 0 Z " fill="#272D75" transform="translate(382,317)"/>
<path d="M0 0 C3.58154279 5.37231418 3.18292762 10.47669864 3.1875 16.75 C3.19974609 17.61882812 3.21199219 18.48765625 3.22460938 19.3828125 C3.23711476 24.93520256 2.56777848 29.6707925 1 35 C-1.17280453 26.34560907 -1.17280453 26.34560907 0 24 C0.08471364 22.18658158 0.10721083 20.37005839 0.09765625 18.5546875 C0.09443359 17.47832031 0.09121094 16.40195313 0.08789062 15.29296875 C0.07532227 13.60107422 0.07532227 13.60107422 0.0625 11.875 C0.05573242 10.17150391 0.05573242 10.17150391 0.04882812 8.43359375 C0.03701615 5.62234362 0.02054507 2.8111977 0 0 Z " fill="#282C75" transform="translate(483,102)"/>
<path d="M0 0 C-0.99 0.33 -1.98 0.66 -3 1 C-3 1.66 -3 2.32 -3 3 C-4.45706726 3.50367757 -5.91570096 4.00282556 -7.375 4.5 C-8.18710937 4.7784375 -8.99921875 5.056875 -9.8359375 5.34375 C-12 6 -12 6 -14 6 C-14 6.66 -14 7.32 -14 8 C-15.4609375 9.47265625 -15.4609375 9.47265625 -17.375 11.0625 C-18.00148438 11.58972656 -18.62796875 12.11695312 -19.2734375 12.66015625 C-21 14 -21 14 -23 15 C-23 15.66 -23 16.32 -23 17 C-24.65 17.33 -26.3 17.66 -28 18 C-27.505 16.515 -27.505 16.515 -27 15 C-25.66666667 14.66666667 -24.33333333 14.33333333 -23 14 C-22.67 13.01 -22.34 12.02 -22 11 C-18.04297848 6.30103694 -6.50520264 -3.25260132 0 0 Z " fill="#171D6F" transform="translate(357,71)"/>
<path d="M0 0 C0.66 0.33 1.32 0.66 2 1 C1.67 1.99 1.34 2.98 1 4 C0.34 4 -0.32 4 -1 4 C-1.33 4.99 -1.66 5.98 -2 7 C-3.32 7 -4.64 7 -6 7 C-6.309375 8.11375 -6.309375 8.11375 -6.625 9.25 C-8.42139782 12.84279563 -10.59690165 13.93145002 -14 16 C-15.299375 17.0828125 -15.299375 17.0828125 -16.625 18.1875 C-18.87533794 19.90486316 -20.24170306 20.59136342 -23 21 C-19.88150469 17.673605 -16.58373698 14.82419869 -13 12 C-9.41135057 9.1685396 -6.13247009 6.32231676 -3 3 C-2 2 -1 1 0 0 Z " fill="#242572" transform="translate(350,376)"/>
<path d="M0 0 C1.2915066 3.87451979 0.34630909 5.17364786 -1 9 C-1.3046153 10.45568371 -1.59545135 11.91429534 -1.875 13.375 C-2.84837444 17.93286444 -4.44267411 22.08409473 -7 26 C-7.66 26.33 -8.32 26.66 -9 27 C-8.81824219 26.34515625 -8.63648438 25.6903125 -8.44921875 25.015625 C-8.19785156 24.10296875 -7.94648438 23.1903125 -7.6875 22.25 C-7.41292969 21.25355469 -7.13835937 20.25710937 -6.85546875 19.23046875 C-5.74926881 15.0531749 -4.78706615 10.84575406 -3.84375 6.62890625 C-2.96641482 3.89535728 -1.84915804 2.1727607 0 0 Z " fill="#2B2D79" transform="translate(431,212)"/>
<path d="M0 0 C7.41322314 4.67355372 7.41322314 4.67355372 8.5546875 9.19921875 C9.28006114 14.83413346 8.91002 18.48403007 6.203125 23.50390625 C5 25 5 25 2 26 C2.33 24.02 2.66 22.04 3 20 C3.99 20.33 4.98 20.66 6 21 C6.33 17.37 6.66 13.74 7 10 C6.34 10 5.68 10 5 10 C3.33333333 6.66666667 1.66666667 3.33333333 0 0 Z " fill="#1D1F6F" transform="translate(380,68)"/>
<path d="M0 0 C0.71285156 0.15597656 1.42570312 0.31195313 2.16015625 0.47265625 C7.85395855 1.62980853 12.2336546 2.02970454 18 1 C21.66825988 0.90517423 25.3312748 0.940292 29 1 C29 1.99 29 2.98 29 4 C28.01 3.67 27.02 3.34 26 3 C22.4962702 2.80534834 19.78109789 2.68756085 16.5 4 C11.8893782 5.84424872 8.16752742 5.47565932 3.625 3.625 C1 2 1 2 0 0 Z " fill="#292C77" transform="translate(425,91)"/>
<path d="M0 0 C0 0.66 0 1.32 0 2 C-22.16914361 12.66105062 -22.16914361 12.66105062 -29 12 C-26.00931857 10.00621238 -23.36187883 8.92800096 -20 7.6875 C-14.59368505 5.65332103 -9.35928981 3.39936924 -4.14453125 0.91796875 C-2 0 -2 0 0 0 Z " fill="#2B2F71" transform="translate(310,408)"/>
<path d="M0 0 C0.66 0 1.32 0 2 0 C0.33333333 3.33333333 -1.33333333 6.66666667 -3 10 C-3.66 10 -4.32 10 -5 10 C-5.2475 10.86625 -5.495 11.7325 -5.75 12.625 C-7.06778613 16.18302254 -8.80186822 18.9226155 -11 22 C-12.32 21.67 -13.64 21.34 -15 21 C-14.47829224 20.31224487 -14.47829224 20.31224487 -13.94604492 19.6105957 C-12.35729075 17.51316495 -10.77237144 15.41286595 -9.1875 13.3125 C-8.64029297 12.59126953 -8.09308594 11.87003906 -7.52929688 11.12695312 C-5.27315452 8.13243691 -3.13012038 5.22302228 -1.23828125 1.98046875 C-0.82964844 1.32691406 -0.42101562 0.67335938 0 0 Z " fill="#2B2B78" transform="translate(366,353)"/>
<path d="M0 0 C1 2 1 2 0.19555664 4.88916016 C-0.22862549 6.09362793 -0.65280762 7.2980957 -1.08984375 8.5390625 C-1.42490685 9.50034561 -1.42490685 9.50034561 -1.76673889 10.48104858 C-2.48329183 12.5315779 -3.2102492 14.57824339 -3.9375 16.625 C-4.42451674 18.01277937 -4.91085369 19.4007975 -5.39648438 20.7890625 C-6.5897743 24.1955163 -7.79242355 27.59858074 -9 31 C-11.85747722 22.42756833 -5.09952964 10.14669192 -1.25 2.375 C-0.8375 1.59125 -0.425 0.8075 0 0 Z " fill="#27296F" transform="translate(482,138)"/>
<path d="M0 0 C0.66 0.66 1.32 1.32 2 2 C-1.90651558 14.25495751 -1.90651558 14.25495751 -5 20 C-5.33 20.99 -5.66 21.98 -6 23 C-6.66 23 -7.32 23 -8 23 C-6.05797655 14.97928527 -3.33160505 7.54549287 0 0 Z " fill="#242A70" transform="translate(448,174)"/>
<path d="M0 0 C0 3.13615759 -0.36631464 4.0212809 -1.86328125 6.65234375 C-2.25580078 7.34650391 -2.64832031 8.04066406 -3.05273438 8.75585938 C-3.46845703 9.47580078 -3.88417969 10.19574219 -4.3125 10.9375 C-4.71662109 11.65357422 -5.12074219 12.36964844 -5.53710938 13.10742188 C-7.50996604 16.56874276 -9.49122612 19.89041943 -12 23 C-11.65966519 17.55464309 -10.24240157 14.3564546 -7.1953125 9.85546875 C-5.85863349 7.92288062 -5.85863349 7.92288062 -4.9375 5.1875 C-3.7970961 2.52655756 -2.4138787 1.52878984 0 0 Z " fill="#272A72" transform="translate(107,186)"/>
<path d="M0 0 C0.33 0 0.66 0 1 0 C1.13277344 1.03640625 1.26554687 2.0728125 1.40234375 3.140625 C1.58060639 4.51043265 1.75899862 5.88022344 1.9375 7.25 C2.02451172 7.93191406 2.11152344 8.61382812 2.20117188 9.31640625 C2.6315938 12.60036611 3.08794131 15.81190294 4 19 C3.01 18.67 2.02 18.34 1 18 C1 17.01 1 16.02 1 15 C-0.32 14.67 -1.64 14.34 -3 14 C-2.69249629 11.85344499 -2.3788634 9.70776715 -2.0625 7.5625 C-1.88847656 6.36753906 -1.71445312 5.17257813 -1.53515625 3.94140625 C-1 1 -1 1 0 0 Z " fill="#2E307B" transform="translate(340,116)"/>
<path d="M0 0 C0.66 0.33 1.32 0.66 2 1 C0.92492371 2.29854721 -0.16043736 3.58858361 -1.25 4.875 C-1.85328125 5.59429687 -2.4565625 6.31359375 -3.078125 7.0546875 C-4.98331823 8.98311479 -6.58261163 9.85329013 -9 11 C-9.33 11.66 -9.66 12.32 -10 13 C-11.24508396 15.49016793 -12.46716796 15.98686718 -15 17 C-14.67425967 13.96654321 -14.05861995 13.05302256 -11.75 10.96484375 C-10.8425 10.29582031 -9.935 9.62679688 -9 8.9375 C-5.04760868 6.18361339 -5.04760868 6.18361339 -3 2 C-2.01 1.34 -1.02 0.68 0 0 Z " fill="#242573" transform="translate(367,392)"/>
<path d="M0 0 C3 2 3 2 3.44140625 3.953125 C3.48136719 4.71109375 3.52132812 5.4690625 3.5625 6.25 C3.87188445 10.13586871 4.6934047 13.31078973 6 17 C6.7248014 19.98795681 7.37134439 22.99047846 8 26 C7.34 26.33 6.68 26.66 6 27 C5.17863496 24.00235701 4.36957512 21.00151902 3.5625 18 C3.21735352 16.74123047 3.21735352 16.74123047 2.86523438 15.45703125 C1.48588574 10.29946679 0.53500427 5.31314582 0 0 Z " fill="#2B2C6F" transform="translate(58,303)"/>
<path d="M0 0 C1.53884929 2.82967892 2.43126064 5.39421917 3.0703125 8.546875 C3.33134766 9.81337891 3.33134766 9.81337891 3.59765625 11.10546875 C3.77167969 11.97816406 3.94570312 12.85085938 4.125 13.75 C4.30675781 14.63816406 4.48851563 15.52632813 4.67578125 16.44140625 C5.12222537 18.62663271 5.56344566 20.81278017 6 23 C1.82871794 18.95408434 0.93124317 15.7038644 0 10 C-0.62225605 8.31624835 -1.27544365 6.64232772 -2 5 C-1.34 5 -0.68 5 0 5 C0 3.35 0 1.7 0 0 Z " fill="#2A2B7A" transform="translate(83,294)"/>
<path d="M0 0 C0.99 0 1.98 0 3 0 C0.85406445 8.54884894 -1.9494127 16.74050475 -5 25 C-5.33 25 -5.66 25 -6 25 C-5.04024941 17.32199527 -3.47551632 10.95103264 0 4 C0 2.68 0 1.36 0 0 Z " fill="#2B2A76" transform="translate(469,170)"/>
<path d="M0 0 C2.69767479 2.69767479 3.05992728 5.20779484 4.0625 8.875 C4.40410156 10.10992187 4.74570312 11.34484375 5.09765625 12.6171875 C5.39542969 13.73351562 5.69320313 14.84984375 6 16 C6.22558594 16.72445312 6.45117188 17.44890625 6.68359375 18.1953125 C7.06730458 20.38388537 6.67401668 21.90305921 6 24 C0.44419134 8.43963554 0.44419134 8.43963554 0 0 Z " fill="#2C2D76" transform="translate(321,130)"/>
<path d="M0 0 C0.515625 0.721875 1.03125 1.44375 1.5625 2.1875 C3.61753451 4.55869366 5.2128198 5.95830619 7.75 7.6875 C9.35875 8.8321875 9.35875 8.8321875 11 10 C11 10.66 11 11.32 11 12 C13.97 12.495 13.97 12.495 17 13 C14.13639539 14.21152503 13.07471705 14.02923711 10.125 12.875 C0.60169492 7.16101695 0.60169492 7.16101695 -1 2 C-0.67 1.34 -0.34 0.68 0 0 Z " fill="#2B2C7C" transform="translate(385,241)"/>
<path d="M0 0 C0.33 0.66 0.66 1.32 1 2 C1.66 2 2.32 2 3 2 C5.11161731 11.41002278 5.11161731 11.41002278 6 16 C6.66 16 7.32 16 8 16 C8.625 17.8125 8.625 17.8125 9 20 C8.34 20.99 7.68 21.98 7 23 C5.82569926 19.7318568 4.66188744 16.46007485 3.5 13.1875 C3.16613281 12.25873047 2.83226562 11.32996094 2.48828125 10.37304688 C2.17246094 9.48037109 1.85664063 8.58769531 1.53125 7.66796875 C1.09135742 6.43469849 1.09135742 6.43469849 0.64257812 5.17651367 C0 3 0 3 0 0 Z " fill="#2A2D75" transform="translate(341,194)"/>
<path d="M0 0 C-1 1 -1 1 -2.76586914 1.11352539 C-3.51473389 1.10828857 -4.26359863 1.10305176 -5.03515625 1.09765625 C-5.84404297 1.09443359 -6.65292969 1.09121094 -7.48632812 1.08789062 C-8.33646484 1.07951172 -9.18660156 1.07113281 -10.0625 1.0625 C-10.91650391 1.05798828 -11.77050781 1.05347656 -12.65039062 1.04882812 C-14.76695663 1.03700373 -16.88348685 1.01906769 -19 1 C-14.5860859 -3.4139141 -5.07056562 -3.38037708 0 0 Z " fill="#232472" transform="translate(255,77)"/>
<path d="M0 0 C0 0.66 0 1.32 0 2 C-0.84304687 2.13277344 -1.68609375 2.26554687 -2.5546875 2.40234375 C-3.65039062 2.57894531 -4.74609375 2.75554687 -5.875 2.9375 C-6.96554688 3.11152344 -8.05609375 3.28554688 -9.1796875 3.46484375 C-11.93821546 3.85551159 -11.93821546 3.85551159 -14 5 C-16.6723621 5.13415472 -19.32250488 5.04318541 -22 5 C-22 4.67 -22 4.34 -22 4 C-19.27238489 3.32636628 -16.543201 2.66090556 -13.8125 2 C-13.04357422 1.80921875 -12.27464844 1.6184375 -11.48242188 1.421875 C-7.57921747 0.48376579 -4.04770205 -0.25957208 0 0 Z " fill="#24266D" transform="translate(161,408)"/>
<path d="M0 0 C0.66 0.33 1.32 0.66 2 1 C-2.88251912 6.15377018 -7.40596028 9.49426491 -14 12 C-14.33 11.34 -14.66 10.68 -15 10 C-14.00097656 9.36191406 -13.00195312 8.72382813 -11.97265625 8.06640625 C-10.66922829 7.23183727 -9.36584519 6.39719823 -8.0625 5.5625 C-7.40314453 5.14162109 -6.74378906 4.72074219 -6.06445312 4.28710938 C-2.86871187 2.35604912 -2.86871187 2.35604912 0 0 Z " fill="#272B75" transform="translate(325,397)"/>
<path d="M0 0 C0.66 0 1.32 0 2 0 C4.32655091 5.98410537 6.42934122 11.58008874 7 18 C6.34 18.33 5.68 18.66 5 19 C4.16142312 16.39741676 3.32896656 13.79314353 2.5 11.1875 C2.14228516 10.08051758 2.14228516 10.08051758 1.77734375 8.95117188 C0.80059864 5.86744804 0 3.25504191 0 0 Z " fill="#2D2E7C" transform="translate(335,175)"/>
<path d="M0 0 C0.99 0 1.98 0 3 0 C3.86604534 1.76505435 4.71748642 3.53728074 5.5625 5.3125 C6.27599609 6.79169922 6.27599609 6.79169922 7.00390625 8.30078125 C8 11 8 11 7 14 C6.01441551 12.42065361 5.03677459 10.83634827 4.0625 9.25 C3.51722656 8.36828125 2.97195312 7.4865625 2.41015625 6.578125 C1.17284288 4.31600083 0.46409487 2.51433675 0 0 Z " fill="#2E307C" transform="translate(74,352)"/>
<path d="M0 0 C0.66 0 1.32 0 2 0 C2.62621031 6.88831341 0.35806067 12.58902255 -2 19 C-2.33 19 -2.66 19 -3 19 C-2.67 14.71 -2.34 10.42 -2 6 C-1.34 6 -0.68 6 0 6 C0 4.02 0 2.04 0 0 Z " fill="#2C2F80" transform="translate(408,314)"/>
<path d="M0 0 C0.66 0.33 1.32 0.66 2 1 C1.01 3.31 0.02 5.62 -1 8 C-1.66 8 -2.32 8 -3 8 C-3.0825 8.7425 -3.165 9.485 -3.25 10.25 C-4.1396946 13.51221354 -5.48503749 14.80954878 -8 17 C-6.19389405 10.65660349 -3.74372266 5.43061745 0 0 Z " fill="#2A2E73" transform="translate(80,182)"/>
<path d="M0 0 C-1 2 -1 2 -3.16796875 3.1171875 C-6.36973755 4.11525612 -8.96660419 4.19853617 -12.3125 4.125 C-13.38113281 4.10695313 -14.44976562 4.08890625 -15.55078125 4.0703125 C-16.35902344 4.04710937 -17.16726563 4.02390625 -18 4 C-18 3.67 -18 3.34 -18 3 C-15.56318413 2.49645133 -13.12564561 1.99703244 -10.6875 1.5 C-9.99720703 1.35691406 -9.30691406 1.21382813 -8.59570312 1.06640625 C-5.67475227 0.47374956 -2.98891878 0 0 0 Z " fill="#2C2E75" transform="translate(277,421)"/>
<path d="M0 0 C0.33 0 0.66 0 1 0 C1 3.3 1 6.6 1 10 C0.34 10 -0.32 10 -1 10 C-1.33 10.99 -1.66 11.98 -2 13 C-4.5625 14.1875 -4.5625 14.1875 -7 15 C-6.401875 14.01 -5.80375 13.02 -5.1875 12 C-2.96690376 8.1356884 -1.47402877 4.20098198 0 0 Z " fill="#252C6F" transform="translate(439,197)"/>
<path d="M0 0 C6.19240462 0.68804496 12.01955594 2.28048715 18 4 C18 4.33 18 4.66 18 5 C11.42684522 5.36517527 6.20514474 4.13619737 0 2 C0 1.34 0 0.68 0 0 Z " fill="#262771" transform="translate(186,418)"/>
<path d="M0 0 C0.33 0 0.66 0 1 0 C1.33 6.27 1.66 12.54 2 19 C1.34 19 0.68 19 0 19 C-2.69948658 13.60102685 -0.83814202 5.7622264 0 0 Z " fill="#1C2263" transform="translate(82,274)"/>
<path d="M0 0 C0.66 0.33 1.32 0.66 2 1 C0.35 6.28 -1.3 11.56 -3 17 C-3.33 17 -3.66 17 -4 17 C-4.48736475 10.29873464 -3.07708804 5.93438408 0 0 Z " fill="#2B2D78" transform="translate(461,196)"/>
<path d="M0 0 C3.83968859 1.4564336 5.31006462 3.28214217 7 7 C7.1875 10.3125 7.1875 10.3125 7 13 C5.43802705 10.65704057 3.89153541 8.30985802 2.375 5.9375 C1.92898437 5.24527344 1.48296875 4.55304688 1.0234375 3.83984375 C0 2 0 2 0 0 Z " fill="#313279" transform="translate(82,366)"/>
<path d="M0 0 C1.98 0 3.96 0 6 0 C7.2063366 5.22745859 6.75612577 9.76528314 6 15 C5.67 15 5.34 15 5 15 C4.83564453 13.75283203 4.83564453 13.75283203 4.66796875 12.48046875 C4.50941406 11.39378906 4.35085938 10.30710937 4.1875 9.1875 C3.96126953 7.56908203 3.96126953 7.56908203 3.73046875 5.91796875 C2.98387597 2.93559009 2.37924316 1.85776521 0 0 Z " fill="#25297C" transform="translate(313,249)"/>
<path d="M0 0 C0 3.93169105 -1.39419615 5.16427228 -4 8 C-4.66 8 -5.32 8 -6 8 C-6 8.66 -6 9.32 -6 10 C-7.65 10.33 -9.3 10.66 -11 11 C-10.67 10.01 -10.34 9.02 -10 8 C-8.66666667 7.66666667 -7.33333333 7.33333333 -6 7 C-5.67 6.01 -5.34 5.02 -5 4 C-3.37667033 2.61423077 -1.71275535 1.27358732 0 0 Z " fill="#1E2167" transform="translate(340,78)"/>
<path d="M0 0 C4.92715996 -0.46192125 8.50732625 1.1724717 13 3 C13 3.66 13 4.32 13 5 C8.15340923 4.40895235 4.39251833 3.02055843 0 1 C0 0.67 0 0.34 0 0 Z " fill="#32337D" transform="translate(168,439)"/>
<path d="M0 0 C0.66 0.33 1.32 0.66 2 1 C1.54554036 2.41791408 1.08625056 3.83428046 0.625 5.25 C0.36976562 6.03890625 0.11453125 6.8278125 -0.1484375 7.640625 C-0.95173667 9.86627958 -1.89711662 11.90931672 -3 14 C-4.37095624 10.30962722 -3.60010967 8.29116165 -2.0625 4.75 C-1.68222656 3.85796875 -1.30195312 2.9659375 -0.91015625 2.046875 C-0.60980469 1.37140625 -0.30945313 0.6959375 0 0 Z " fill="#2A2B72" transform="translate(69,204)"/>
<path d="M0 0 C0.66 0 1.32 0 2 0 C1.67566492 5.35152885 -1.49704824 8.28280043 -5 12 C-5.33 11.01 -5.66 10.02 -6 9 C-4.72641268 7.28724465 -3.38576923 5.62332967 -2 4 C-1.29114106 2.68861096 -0.60543548 1.36222983 0 0 Z " fill="#262671" transform="translate(273,116)"/>
<path d="M0 0 C2.93879484 1.35236577 5.29232911 2.89942659 7.75 5 C8.67039062 5.7734375 8.67039062 5.7734375 9.609375 6.5625 C11 8 11 8 11 10 C8.06120516 8.64763423 5.70767089 7.10057341 3.25 5 C2.63640625 4.484375 2.0228125 3.96875 1.390625 3.4375 C0 2 0 2 0 0 Z " fill="#272871" transform="translate(366,265)"/>
<path d="M0 0 C1.91385532 2.87078299 2.96432952 5.33411656 4.125 8.5625 C4.47820312 9.53316406 4.83140625 10.50382812 5.1953125 11.50390625 C6 14 6 14 6 16 C5.34 16 4.68 16 4 16 C3.32320342 14.274773 2.65898 12.54461061 2 10.8125 C1.443125 9.36810547 1.443125 9.36810547 0.875 7.89453125 C0.02363228 5.07817642 -0.17072647 2.91835561 0 0 Z " fill="#292D72" transform="translate(89,318)"/>
<path d="M0 0 C0.33 0 0.66 0 1 0 C0.91245449 1.75091019 0.80426627 3.50079551 0.6875 5.25 C0.62949219 6.22453125 0.57148438 7.1990625 0.51171875 8.203125 C-0.04636524 11.25341611 -0.96369776 12.70711276 -3 15 C-3.66 14.67 -4.32 14.34 -5 14 C-3.35 9.38 -1.7 4.76 0 0 Z " fill="#232665" transform="translate(382,317)"/>
<path d="M0 0 C0.99 0.33 1.98 0.66 3 1 C1.66666667 4.33333333 0.33333333 7.66666667 -1 11 C-1.33 11 -1.66 11 -2 11 C-3.36176066 4.34250344 -3.36176066 4.34250344 -2 1 C-1.34 0.67 -0.68 0.34 0 0 Z " fill="#272A77" transform="translate(343,105)"/>
<path d="M0 0 C4.5929708 3.52127761 5.11941917 7.57747597 6 13 C5.34 13 4.68 13 4 13 C3.32694982 11.39850114 2.66177773 9.79368971 2 8.1875 C1.62875 7.29417969 1.2575 6.40085937 0.875 5.48046875 C0 3 0 3 0 0 Z " fill="#2C2D72" transform="translate(65,330)"/>
<path d="M0 0 C0.66 0.66 1.32 1.32 2 2 C0.68 5.96 -0.64 9.92 -2 14 C-3.08577754 10.74266739 -2.90445241 9.67810011 -2.125 6.4375 C-1.94195312 5.65246094 -1.75890625 4.86742187 -1.5703125 4.05859375 C-1 2 -1 2 0 0 Z " fill="#2B2E79" transform="translate(448,174)"/>
<path d="M0 0 C2.475 0.495 2.475 0.495 5 1 C5 1.66 5 2.32 5 3 C6.98 3 8.96 3 11 3 C11.66 4.32 12.32 5.64 13 7 C11.58208592 6.54554036 10.16571954 6.08625056 8.75 5.625 C7.96109375 5.36976562 7.1721875 5.11453125 6.359375 4.8515625 C4.13372042 4.04826333 2.09068328 3.10288338 0 2 C0 1.34 0 0.68 0 0 Z " fill="#2B3088" transform="translate(361,91)"/>
<path d="M0 0 C0.33 1.32 0.66 2.64 1 4 C-2.24863525 5.08287842 -2.87344094 4.85269793 -6 4 C-7.32 4 -8.64 4 -10 4 C-10 3.34 -10 2.68 -10 2 C-6.7 1.34 -3.4 0.68 0 0 Z " fill="#303484" transform="translate(288,418)"/>
<path d="M0 0 C0.66 0.33 1.32 0.66 2 1 C-0.31 3.64 -2.62 6.28 -5 9 C-5.99 8.67 -6.98 8.34 -8 8 C-7.360625 7.566875 -6.72125 7.13375 -6.0625 6.6875 C-3.73253997 5.08760823 -3.73253997 5.08760823 -3 2 C-2.01 1.34 -1.02 0.68 0 0 Z " fill="#2C2F75" transform="translate(367,392)"/>
<path d="M0 0 C0.66 0 1.32 0 2 0 C0.33333333 3.33333333 -1.33333333 6.66666667 -3 10 C-3.66 10 -4.32 10 -5 10 C-5 10.66 -5 11.32 -5 12 C-5.66 11.67 -6.32 11.34 -7 11 C-5.88368586 9.16136495 -4.75670373 7.32920277 -3.625 5.5 C-2.99851562 4.4790625 -2.37203125 3.458125 -1.7265625 2.40625 C-1.15679687 1.6121875 -0.58703125 0.818125 0 0 Z " fill="#25266A" transform="translate(366,353)"/>
<path d="M0 0 C4.95 1.98 4.95 1.98 10 4 C10 4.66 10 5.32 10 6 C5.6109185 5.48964169 2.66291938 4.47785723 -1 2 C-0.67 1.34 -0.34 0.68 0 0 Z " fill="#272870" transform="translate(378,274)"/>
<path d="M0 0 C0.66 0 1.32 0 2 0 C1.34 4.95 0.68 9.9 0 15 C-0.99 14.67 -1.98 14.34 -3 14 C-2.5359375 13.0409375 -2.5359375 13.0409375 -2.0625 12.0625 C-0.68064597 8.07950896 -0.3463457 4.18349151 0 0 Z " fill="#2B2D76" transform="translate(455,214)"/>
<path d="M0 0 C0.99 0.33 1.98 0.66 3 1 C1.57140593 2.03325986 0.13177617 3.05127634 -1.3125 4.0625 C-2.51326172 4.91521484 -2.51326172 4.91521484 -3.73828125 5.78515625 C-4.48464844 6.18605469 -5.23101562 6.58695313 -6 7 C-6.99 6.67 -7.98 6.34 -9 6 C-7.57140593 4.96674014 -6.13177617 3.94872366 -4.6875 2.9375 C-3.88699219 2.36902344 -3.08648437 1.80054688 -2.26171875 1.21484375 C-1.51535156 0.81394531 -0.76898438 0.41304687 0 0 Z " fill="#2A2D76" transform="translate(153,140)"/>
<path d="M0 0 C0 0.66 0 1.32 0 2 C-4.1196377 3.29243536 -7.66831683 4.26252625 -12 4 C-9.94577945 1.94577945 -8.66990976 1.31862408 -6 0.3125 C-5.29875 0.04050781 -4.5975 -0.23148437 -3.875 -0.51171875 C-2 -1 -2 -1 0 0 Z " fill="#2C2E7B" transform="translate(366,69)"/>
<path d="M0 0 C1 3 1 3 0 6 C-0.66 6 -1.32 6 -2 6 C-2.33 6.99 -2.66 7.98 -3 9 C-5.5625 10.6875 -5.5625 10.6875 -8 12 C-6.59023295 8.96147295 -4.91129772 6.4060405 -2.875 3.75 C-2.06675781 2.69039062 -2.06675781 2.69039062 -1.2421875 1.609375 C-0.83226562 1.07828125 -0.42234375 0.5471875 0 0 Z " fill="#272A6E" transform="translate(421,239)"/>
<path d="M0 0 C0.66 0.33 1.32 0.66 2 1 C1.39009109 4.55780196 0.4216319 7.6828589 -1 11 C-1.66 10.34 -2.32 9.68 -3 9 C-2.01 6.03 -1.02 3.06 0 0 Z " fill="#232673" transform="translate(403,333)"/>
<path d="M0 0 C6 7.71428571 6 7.71428571 6 11 C4.68 10.34 3.36 9.68 2 9 C2 7.68 2 6.36 2 5 C1.34 4.67 0.68 4.34 0 4 C0 2.68 0 1.36 0 0 Z " fill="#272978" transform="translate(379,230)"/>
<path d="M0 0 C0.66 0.33 1.32 0.66 2 1 C1.67 1.99 1.34 2.98 1 4 C0.34 4 -0.32 4 -1 4 C-1.33 4.99 -1.66 5.98 -2 7 C-2.99 7 -3.98 7 -5 7 C-3.70700306 4.11562221 -2.34058637 2.12780579 0 0 Z " fill="#2A2C87" transform="translate(350,376)"/>
<path d="M0 0 C3.96 0.33 7.92 0.66 12 1 C7.78370866 3.10814567 5.60209225 3.17700355 1 3 C0.67 2.01 0.34 1.02 0 0 Z " fill="#1B1B70" transform="translate(260,293)"/>
<path d="M0 0 C-0.33 0.99 -0.66 1.98 -1 3 C-3.5625 4.1875 -3.5625 4.1875 -6 5 C-6 4.34 -6 3.68 -6 3 C-6.99 2.67 -7.98 2.34 -9 2 C-3.375 0 -3.375 0 0 0 Z " fill="#272C7B" transform="translate(382,93)"/>
<path d="M0 0 C1.22589844 0.29197266 1.22589844 0.29197266 2.4765625 0.58984375 C3.41628906 0.82380859 3.41628906 0.82380859 4.375 1.0625 C4.375 1.7225 4.375 2.3825 4.375 3.0625 C3.116875 2.93875 1.85875 2.815 0.5625 2.6875 C-0.49904297 2.58308594 -0.49904297 2.58308594 -1.58203125 2.4765625 C-3.625 2.0625 -3.625 2.0625 -6.625 0.0625 C-3.99249612 -1.25375194 -2.82320944 -0.68563658 0 0 Z " fill="#2F2F75" transform="translate(187.625,443.9375)"/>
<path d="M0 0 C1.46067199 0.45082469 2.91848032 0.91093537 4.375 1.375 C5.18710938 1.63023437 5.99921875 1.88546875 6.8359375 2.1484375 C9 3 9 3 11 5 C8 6 8 6 5.95703125 5.0390625 C5.24933594 4.57242187 4.54164063 4.10578125 3.8125 3.625 C3.09707031 3.16351563 2.38164062 2.70203125 1.64453125 2.2265625 C1.10183594 1.82179688 0.55914062 1.41703125 0 1 C0 0.67 0 0.34 0 0 Z " fill="#242867" transform="translate(163,408)"/>
<path d="M0 0 C0.99 0 1.98 0 3 0 C3.99 2.97 4.98 5.94 6 9 C5.34 9 4.68 9 4 9 C0 2.25 0 2.25 0 0 Z " fill="#2C2F75" transform="translate(458,100)"/>
<path d="M0 0 C0.99773437 0.02320312 1.99546875 0.04640625 3.0234375 0.0703125 C4.52777344 0.09738281 4.52777344 0.09738281 6.0625 0.125 C6.83335937 0.14820312 7.60421875 0.17140625 8.3984375 0.1953125 C8.3984375 1.1853125 8.3984375 2.1753125 8.3984375 3.1953125 C7.4084375 2.8653125 6.4184375 2.5353125 5.3984375 2.1953125 C3.67048398 2.12728283 1.94008385 2.11035605 0.2109375 2.1328125 C-0.69011719 2.14183594 -1.59117187 2.15085937 -2.51953125 2.16015625 C-3.55013672 2.17755859 -3.55013672 2.17755859 -4.6015625 2.1953125 C-2.6015625 0.1953125 -2.6015625 0.1953125 0 0 Z " fill="#27276B" transform="translate(445.6015625,91.8046875)"/>
<path d="M0 0 C0.53625 0.226875 1.0725 0.45375 1.625 0.6875 C0.965 0.6875 0.305 0.6875 -0.375 0.6875 C-0.375 1.3475 -0.375 2.0075 -0.375 2.6875 C-6.125 3.8125 -6.125 3.8125 -8.375 2.6875 C-2.95961538 -0.38942308 -2.95961538 -0.38942308 0 0 Z " fill="#2E3284" transform="translate(183.375,125.3125)"/>
<path d="M0 0 C0.33 0 0.66 0 1 0 C1.14285714 7.42857143 1.14285714 7.42857143 0 11 C-0.66 11 -1.32 11 -2 11 C-2.24042276 6.91281305 -1.42258812 3.82320557 0 0 Z " fill="#272B8C" transform="translate(386,78)"/>
<path d="M0 0 C2.0625 1.75 2.0625 1.75 4 4 C3.75 6.25 3.75 6.25 3 8 C0.4345406 5.4345406 0.45953913 3.52313332 0 0 Z " fill="#242769" transform="translate(117,371)"/>
<path d="M0 0 C-1.625 1.5625 -1.625 1.5625 -4 3 C-7.25 2.6875 -7.25 2.6875 -10 2 C-6.16991045 -0.55339303 -4.41711378 -1.47237126 0 0 Z " fill="#2B2F75" transform="translate(189,100)"/>
<path d="M0 0 C1.16945792 0.80847729 2.33550461 1.62189112 3.5 2.4375 C4.47453125 3.11619141 4.47453125 3.11619141 5.46875 3.80859375 C5.9740625 4.20175781 6.479375 4.59492187 7 5 C7 5.33 7 5.66 7 6 C5.35 6 3.7 6 2 6 C1.34 4.02 0.68 2.04 0 0 Z " fill="#2B2C76" transform="translate(467,81)"/>
</svg>
